<svg width="1316" height="231" viewBox="0 0 1316 231" fill="none" xmlns="http://www.w3.org/2000/svg">
<mask id="path-1-outside-1_454_5" maskUnits="userSpaceOnUse" x="0" y="0" width="1316" height="231" fill="black">
<rect fill="white" width="1316" height="231"/>
<path d="M62.3121 226L1.76172 11.4545H43.5604L82.2163 169.116H84.2067L125.482 11.4545H163.509L204.889 169.221H206.774L245.43 11.4545H287.229L226.678 226H188.337L145.386 75.462H143.71L100.654 226H62.3121ZM312.502 226V65.0909H350.424V226H312.502ZM331.568 42.2536C325.562 42.2536 320.393 40.2631 316.063 36.2823C311.733 32.2316 309.568 27.3778 309.568 21.7209C309.568 15.9941 311.733 11.1403 316.063 7.15943C320.393 3.10877 325.562 1.08345 331.568 1.08345C337.644 1.08345 342.812 3.10877 347.072 7.15943C351.402 11.1403 353.567 15.9941 353.567 21.7209C353.567 27.3778 351.402 32.2316 347.072 36.2823C342.812 40.2631 337.644 42.2536 331.568 42.2536ZM387.325 226V201.906L470.294 97.8803V96.5185H390.049V65.0909H516.702V90.9663L437.714 193.211V194.572H519.426V226H387.325ZM601.373 229.248C591.177 229.248 581.993 227.432 573.822 223.8C565.72 220.099 559.295 214.651 554.546 207.458C549.867 200.264 547.527 191.395 547.527 180.849C547.527 171.77 549.204 164.262 552.556 158.326C555.908 152.39 560.483 147.641 566.279 144.079C572.076 140.517 578.606 137.828 585.869 136.012C593.202 134.127 600.78 132.765 608.602 131.927C618.03 130.949 625.677 130.076 631.544 129.308C637.41 128.47 641.67 127.213 644.324 125.537C647.048 123.791 648.41 121.102 648.41 117.47V116.842C648.41 108.95 646.07 102.839 641.391 98.5089C636.712 94.1789 629.972 92.0138 621.173 92.0138C611.884 92.0138 604.516 94.0392 599.069 98.0898C593.691 102.141 590.059 106.924 588.174 112.442L552.765 107.413C555.559 97.6359 560.168 89.4647 566.593 82.8999C573.019 76.2651 580.876 71.3066 590.164 68.0241C599.453 64.6719 609.719 62.9957 620.963 62.9957C628.715 62.9957 636.433 63.9036 644.115 65.7195C651.797 67.5353 658.816 70.5383 665.171 74.7287C671.527 78.8492 676.625 84.4712 680.466 91.5948C684.377 98.7184 686.332 107.623 686.332 118.308V226H649.877V203.896H648.619C646.315 208.366 643.067 212.556 638.877 216.467C634.756 220.308 629.553 223.416 623.268 225.79C617.052 228.095 609.754 229.248 601.373 229.248ZM611.221 201.382C618.833 201.382 625.433 199.88 631.02 196.877C636.607 193.804 640.902 189.754 643.905 184.725C646.978 179.697 648.515 174.214 648.515 168.278V149.317C647.327 150.295 645.302 151.202 642.439 152.04C639.645 152.879 636.502 153.612 633.01 154.24C629.518 154.869 626.061 155.428 622.639 155.917C619.217 156.405 616.249 156.824 613.735 157.174C608.078 157.942 603.015 159.199 598.545 160.945C594.075 162.691 590.548 165.135 587.964 168.278C585.38 171.351 584.088 175.332 584.088 180.221C584.088 187.204 586.637 192.477 591.736 196.039C596.834 199.601 603.329 201.382 611.221 201.382ZM724.465 226V65.0909H761.235V91.9091H762.911C765.844 82.6205 770.873 75.462 777.996 70.4336C785.19 65.3353 793.396 62.7862 802.614 62.7862C804.71 62.7862 807.049 62.891 809.633 63.1005C812.287 63.2402 814.487 63.4846 816.233 63.8338V98.7184C814.627 98.1597 812.078 97.6708 808.586 97.2518C805.164 96.7629 801.846 96.5185 798.634 96.5185C791.72 96.5185 785.504 98.02 779.987 101.023C774.539 103.956 770.244 108.042 767.101 113.28C763.959 118.518 762.387 124.559 762.387 131.403V226H724.465ZM894.514 228.828C881.873 228.828 870.559 225.581 860.572 219.086C850.585 212.591 842.693 203.163 836.897 190.801C831.1 178.44 828.202 163.424 828.202 145.755C828.202 127.876 831.135 112.791 837.001 100.499C842.938 88.1378 850.934 78.8143 860.991 72.5288C871.048 66.1734 882.257 62.9957 894.619 62.9957C904.047 62.9957 911.799 64.602 917.875 67.8146C923.951 70.9574 928.77 74.7636 932.332 79.2333C935.893 83.6332 938.652 87.7886 940.608 91.6996H942.179V11.4545H980.206V226H942.912V200.648H940.608C938.652 204.559 935.824 208.715 932.122 213.115C928.421 217.445 923.532 221.146 917.456 224.219C911.38 227.292 903.733 228.828 894.514 228.828ZM905.094 197.715C913.126 197.715 919.97 195.55 925.627 191.22C931.284 186.82 935.579 180.709 938.512 172.887C941.446 165.065 942.912 155.951 942.912 145.545C942.912 135.139 941.446 126.095 938.512 118.413C935.649 110.731 931.389 104.759 925.732 100.499C920.145 96.2391 913.266 94.109 905.094 94.109C896.644 94.109 889.59 96.3089 883.933 100.709C878.276 105.109 874.016 111.185 871.153 118.937C868.289 126.689 866.858 135.558 866.858 145.545C866.858 155.602 868.289 164.577 871.153 172.468C874.086 180.29 878.381 186.471 884.038 191.011C889.765 195.48 896.784 197.715 905.094 197.715ZM1196.35 158.326V65.0909H1234.27V226H1197.5V197.401H1195.83C1192.19 206.41 1186.22 213.778 1177.91 219.505C1169.67 225.232 1159.51 228.095 1147.43 228.095C1136.88 228.095 1127.56 225.756 1119.46 221.076C1111.43 216.327 1105.14 209.448 1100.6 200.439C1096.06 191.36 1093.79 180.395 1093.79 167.545V65.0909H1131.71V161.678C1131.71 171.875 1134.51 179.976 1140.09 185.982C1145.68 191.988 1153.01 194.991 1162.09 194.991C1167.68 194.991 1173.09 193.63 1178.33 190.906C1183.57 188.182 1187.86 184.132 1191.22 178.754C1194.64 173.306 1196.35 166.497 1196.35 158.326ZM1273.27 226V65.0909H1311.19V226H1273.27ZM1292.33 42.2536C1286.33 42.2536 1281.16 40.2631 1276.83 36.2823C1272.5 32.2316 1270.34 27.3778 1270.34 21.7209C1270.34 15.9941 1272.5 11.1403 1276.83 7.15943C1281.16 3.10877 1286.33 1.08345 1292.33 1.08345C1298.41 1.08345 1303.58 3.10877 1307.84 7.15943C1312.17 11.1403 1314.33 15.9941 1314.33 21.7209C1314.33 27.3778 1312.17 32.2316 1307.84 36.2823C1303.58 40.2631 1298.41 42.2536 1292.33 42.2536Z"/>
</mask>
<path d="M62.3121 226L1.76172 11.4545H43.5604L82.2163 169.116H84.2067L125.482 11.4545H163.509L204.889 169.221H206.774L245.43 11.4545H287.229L226.678 226H188.337L145.386 75.462H143.71L100.654 226H62.3121ZM312.502 226V65.0909H350.424V226H312.502ZM331.568 42.2536C325.562 42.2536 320.393 40.2631 316.063 36.2823C311.733 32.2316 309.568 27.3778 309.568 21.7209C309.568 15.9941 311.733 11.1403 316.063 7.15943C320.393 3.10877 325.562 1.08345 331.568 1.08345C337.644 1.08345 342.812 3.10877 347.072 7.15943C351.402 11.1403 353.567 15.9941 353.567 21.7209C353.567 27.3778 351.402 32.2316 347.072 36.2823C342.812 40.2631 337.644 42.2536 331.568 42.2536ZM387.325 226V201.906L470.294 97.8803V96.5185H390.049V65.0909H516.702V90.9663L437.714 193.211V194.572H519.426V226H387.325ZM601.373 229.248C591.177 229.248 581.993 227.432 573.822 223.8C565.72 220.099 559.295 214.651 554.546 207.458C549.867 200.264 547.527 191.395 547.527 180.849C547.527 171.77 549.204 164.262 552.556 158.326C555.908 152.39 560.483 147.641 566.279 144.079C572.076 140.517 578.606 137.828 585.869 136.012C593.202 134.127 600.78 132.765 608.602 131.927C618.03 130.949 625.677 130.076 631.544 129.308C637.41 128.47 641.67 127.213 644.324 125.537C647.048 123.791 648.41 121.102 648.41 117.47V116.842C648.41 108.95 646.07 102.839 641.391 98.5089C636.712 94.1789 629.972 92.0138 621.173 92.0138C611.884 92.0138 604.516 94.0392 599.069 98.0898C593.691 102.141 590.059 106.924 588.174 112.442L552.765 107.413C555.559 97.6359 560.168 89.4647 566.593 82.8999C573.019 76.2651 580.876 71.3066 590.164 68.0241C599.453 64.6719 609.719 62.9957 620.963 62.9957C628.715 62.9957 636.433 63.9036 644.115 65.7195C651.797 67.5353 658.816 70.5383 665.171 74.7287C671.527 78.8492 676.625 84.4712 680.466 91.5948C684.377 98.7184 686.332 107.623 686.332 118.308V226H649.877V203.896H648.619C646.315 208.366 643.067 212.556 638.877 216.467C634.756 220.308 629.553 223.416 623.268 225.79C617.052 228.095 609.754 229.248 601.373 229.248ZM611.221 201.382C618.833 201.382 625.433 199.88 631.02 196.877C636.607 193.804 640.902 189.754 643.905 184.725C646.978 179.697 648.515 174.214 648.515 168.278V149.317C647.327 150.295 645.302 151.202 642.439 152.04C639.645 152.879 636.502 153.612 633.01 154.24C629.518 154.869 626.061 155.428 622.639 155.917C619.217 156.405 616.249 156.824 613.735 157.174C608.078 157.942 603.015 159.199 598.545 160.945C594.075 162.691 590.548 165.135 587.964 168.278C585.38 171.351 584.088 175.332 584.088 180.221C584.088 187.204 586.637 192.477 591.736 196.039C596.834 199.601 603.329 201.382 611.221 201.382ZM724.465 226V65.0909H761.235V91.9091H762.911C765.844 82.6205 770.873 75.462 777.996 70.4336C785.19 65.3353 793.396 62.7862 802.614 62.7862C804.71 62.7862 807.049 62.891 809.633 63.1005C812.287 63.2402 814.487 63.4846 816.233 63.8338V98.7184C814.627 98.1597 812.078 97.6708 808.586 97.2518C805.164 96.7629 801.846 96.5185 798.634 96.5185C791.72 96.5185 785.504 98.02 779.987 101.023C774.539 103.956 770.244 108.042 767.101 113.28C763.959 118.518 762.387 124.559 762.387 131.403V226H724.465ZM894.514 228.828C881.873 228.828 870.559 225.581 860.572 219.086C850.585 212.591 842.693 203.163 836.897 190.801C831.1 178.44 828.202 163.424 828.202 145.755C828.202 127.876 831.135 112.791 837.001 100.499C842.938 88.1378 850.934 78.8143 860.991 72.5288C871.048 66.1734 882.257 62.9957 894.619 62.9957C904.047 62.9957 911.799 64.602 917.875 67.8146C923.951 70.9574 928.77 74.7636 932.332 79.2333C935.893 83.6332 938.652 87.7886 940.608 91.6996H942.179V11.4545H980.206V226H942.912V200.648H940.608C938.652 204.559 935.824 208.715 932.122 213.115C928.421 217.445 923.532 221.146 917.456 224.219C911.38 227.292 903.733 228.828 894.514 228.828ZM905.094 197.715C913.126 197.715 919.97 195.55 925.627 191.22C931.284 186.82 935.579 180.709 938.512 172.887C941.446 165.065 942.912 155.951 942.912 145.545C942.912 135.139 941.446 126.095 938.512 118.413C935.649 110.731 931.389 104.759 925.732 100.499C920.145 96.2391 913.266 94.109 905.094 94.109C896.644 94.109 889.59 96.3089 883.933 100.709C878.276 105.109 874.016 111.185 871.153 118.937C868.289 126.689 866.858 135.558 866.858 145.545C866.858 155.602 868.289 164.577 871.153 172.468C874.086 180.29 878.381 186.471 884.038 191.011C889.765 195.48 896.784 197.715 905.094 197.715ZM1196.35 158.326V65.0909H1234.27V226H1197.5V197.401H1195.83C1192.19 206.41 1186.22 213.778 1177.91 219.505C1169.67 225.232 1159.51 228.095 1147.43 228.095C1136.88 228.095 1127.56 225.756 1119.46 221.076C1111.43 216.327 1105.14 209.448 1100.6 200.439C1096.06 191.36 1093.79 180.395 1093.79 167.545V65.0909H1131.71V161.678C1131.71 171.875 1134.51 179.976 1140.09 185.982C1145.68 191.988 1153.01 194.991 1162.09 194.991C1167.68 194.991 1173.09 193.63 1178.33 190.906C1183.57 188.182 1187.86 184.132 1191.22 178.754C1194.64 173.306 1196.35 166.497 1196.35 158.326ZM1273.27 226V65.0909H1311.19V226H1273.27ZM1292.33 42.2536C1286.33 42.2536 1281.16 40.2631 1276.83 36.2823C1272.5 32.2316 1270.34 27.3778 1270.34 21.7209C1270.34 15.9941 1272.5 11.1403 1276.83 7.15943C1281.16 3.10877 1286.33 1.08345 1292.33 1.08345C1298.41 1.08345 1303.58 3.10877 1307.84 7.15943C1312.17 11.1403 1314.33 15.9941 1314.33 21.7209C1314.33 27.3778 1312.17 32.2316 1307.84 36.2823C1303.58 40.2631 1298.41 42.2536 1292.33 42.2536Z" fill="url(#paint0_linear_454_5)"/>
<path d="M62.3121 226L61.3497 226.272L61.5553 227H62.3121V226ZM1.76172 11.4545V10.4545H0.440429L0.799313 11.7262L1.76172 11.4545ZM43.5604 11.4545L44.5316 11.2164L44.3448 10.4545H43.5604V11.4545ZM82.2163 169.116L81.245 169.354L81.4318 170.116H82.2163V169.116ZM84.2067 169.116V170.116H84.9786L85.1741 169.369L84.2067 169.116ZM125.482 11.4545V10.4545H124.71L124.514 11.2013L125.482 11.4545ZM163.509 11.4545L164.476 11.2008L164.28 10.4545H163.509V11.4545ZM204.889 169.221L203.921 169.475L204.117 170.221H204.889V169.221ZM206.774 169.221V170.221H207.559L207.745 169.459L206.774 169.221ZM245.43 11.4545V10.4545H244.645L244.459 11.2166L245.43 11.4545ZM287.229 11.4545L288.191 11.7262L288.55 10.4545H287.229V11.4545ZM226.678 226V227H227.435L227.641 226.272L226.678 226ZM188.337 226L187.375 226.274L187.582 227H188.337V226ZM145.386 75.462L146.347 75.1876L146.14 74.462H145.386V75.462ZM143.71 75.462V74.462H142.955L142.748 75.187L143.71 75.462ZM100.654 226V227H101.408L101.615 226.275L100.654 226ZM63.2746 225.728L2.72412 11.1829L0.799313 11.7262L61.3497 226.272L63.2746 225.728ZM1.76172 12.4545H43.5604V10.4545H1.76172V12.4545ZM42.5891 11.6927L81.245 169.354L83.1875 168.878L44.5316 11.2164L42.5891 11.6927ZM82.2163 170.116H84.2067V168.116H82.2163V170.116ZM85.1741 169.369L126.449 11.7078L124.514 11.2013L83.2393 168.863L85.1741 169.369ZM125.482 12.4545H163.509V10.4545H125.482V12.4545ZM162.542 11.7082L203.921 169.475L205.856 168.967L164.476 11.2008L162.542 11.7082ZM204.889 170.221H206.774V168.221H204.889V170.221ZM207.745 169.459L246.401 11.6925L244.459 11.2166L205.803 168.983L207.745 169.459ZM245.43 12.4545H287.229V10.4545H245.43V12.4545ZM286.266 11.1829L225.716 225.728L227.641 226.272L288.191 11.7262L286.266 11.1829ZM226.678 225H188.337V227H226.678V225ZM189.298 225.726L146.347 75.1876L144.424 75.7364L187.375 226.274L189.298 225.726ZM145.386 74.462H143.71V76.462H145.386V74.462ZM142.748 75.187L99.6923 225.725L101.615 226.275L144.671 75.737L142.748 75.187ZM100.654 225H62.3121V227H100.654V225ZM312.502 226H311.502V227H312.502V226ZM312.502 65.0909V64.0909H311.502V65.0909H312.502ZM350.424 65.0909H351.424V64.0909H350.424V65.0909ZM350.424 226V227H351.424V226H350.424ZM316.063 36.2823L315.38 37.0126L315.387 37.0185L316.063 36.2823ZM316.063 7.15943L316.74 7.89563L316.747 7.8897L316.063 7.15943ZM347.072 7.15943L346.383 7.88413L346.389 7.88992L346.395 7.8956L347.072 7.15943ZM347.072 36.2823L347.755 37.013L347.755 37.0126L347.072 36.2823ZM313.502 226V65.0909H311.502V226H313.502ZM312.502 66.0909H350.424V64.0909H312.502V66.0909ZM349.424 65.0909V226H351.424V65.0909H349.424ZM350.424 225H312.502V227H350.424V225ZM331.568 41.2536C325.806 41.2536 320.881 39.3534 316.74 35.5461L315.387 37.0185C319.906 41.1729 325.317 43.2536 331.568 43.2536V41.2536ZM316.747 35.552C312.608 31.6802 310.568 27.0864 310.568 21.7209H308.568C308.568 27.6693 310.859 32.7831 315.38 37.0126L316.747 35.552ZM310.568 21.7209C310.568 16.2824 312.61 11.6929 316.74 7.8956L315.387 6.42326C310.857 10.5876 308.568 15.7058 308.568 21.7209H310.568ZM316.747 7.8897C320.889 4.01484 325.812 2.08345 331.568 2.08345V0.0834453C325.312 0.0834453 319.898 2.20271 315.38 6.42916L316.747 7.8897ZM331.568 2.08345C337.397 2.08345 342.315 4.01669 346.383 7.88413L347.761 6.43473C343.308 2.20086 337.891 0.0834453 331.568 0.0834453V2.08345ZM346.395 7.8956C350.526 11.6929 352.567 16.2824 352.567 21.7209H354.567C354.567 15.7058 352.278 10.5876 347.749 6.42326L346.395 7.8956ZM352.567 21.7209C352.567 27.0864 350.528 31.6802 346.389 35.552L347.755 37.0126C352.276 32.7831 354.567 27.6693 354.567 21.7209H352.567ZM346.389 35.5517C342.323 39.3515 337.402 41.2536 331.568 41.2536V43.2536C337.885 43.2536 343.301 41.1747 347.755 37.013L346.389 35.5517ZM387.325 226H386.325V227H387.325V226ZM387.325 201.906L386.544 201.282L386.325 201.556V201.906H387.325ZM470.294 97.8803L471.076 98.5039L471.294 98.2303V97.8803H470.294ZM470.294 96.5185H471.294V95.5185H470.294V96.5185ZM390.049 96.5185H389.049V97.5185H390.049V96.5185ZM390.049 65.0909V64.0909H389.049V65.0909H390.049ZM516.702 65.0909H517.702V64.0909H516.702V65.0909ZM516.702 90.9663L517.494 91.5776L517.702 91.3075V90.9663H516.702ZM437.714 193.211L436.923 192.599L436.714 192.869V193.211H437.714ZM437.714 194.572H436.714V195.572H437.714V194.572ZM519.426 194.572H520.426V193.572H519.426V194.572ZM519.426 226V227H520.426V226H519.426ZM388.325 226V201.906H386.325V226H388.325ZM388.107 202.529L471.076 98.5039L469.512 97.2568L386.544 201.282L388.107 202.529ZM471.294 97.8803V96.5185H469.294V97.8803H471.294ZM470.294 95.5185H390.049V97.5185H470.294V95.5185ZM391.049 96.5185V65.0909H389.049V96.5185H391.049ZM390.049 66.0909H516.702V64.0909H390.049V66.0909ZM515.702 65.0909V90.9663H517.702V65.0909H515.702ZM515.911 90.3549L436.923 192.599L438.506 193.822L517.494 91.5776L515.911 90.3549ZM436.714 193.211V194.572H438.714V193.211H436.714ZM437.714 195.572H519.426V193.572H437.714V195.572ZM518.426 194.572V226H520.426V194.572H518.426ZM519.426 225H387.325V227H519.426V225ZM573.822 223.8L573.406 224.71L573.416 224.714L573.822 223.8ZM554.546 207.458L553.708 208.003L553.712 208.009L554.546 207.458ZM552.556 158.326L551.685 157.834L551.685 157.834L552.556 158.326ZM566.279 144.079L565.756 143.227L565.756 143.227L566.279 144.079ZM585.869 136.012L586.112 136.983L586.118 136.981L585.869 136.012ZM608.602 131.927L608.499 130.932L608.495 130.933L608.602 131.927ZM631.544 129.308L631.674 130.299L631.685 130.298L631.544 129.308ZM644.324 125.537L644.858 126.382L644.864 126.378L644.324 125.537ZM641.391 98.5089L642.07 97.7749L642.07 97.7749L641.391 98.5089ZM599.069 98.0898L598.472 97.2874L598.467 97.2911L599.069 98.0898ZM588.174 112.442L588.033 113.432L588.852 113.548L589.12 112.765L588.174 112.442ZM552.765 107.413L551.804 107.139L551.489 108.242L552.625 108.403L552.765 107.413ZM566.593 82.8999L567.308 83.5993L567.312 83.5955L566.593 82.8999ZM590.164 68.0241L590.497 68.967L590.504 68.9648L590.164 68.0241ZM665.171 74.7287L664.621 75.5636L664.627 75.5678L665.171 74.7287ZM680.466 91.5948L679.586 92.0694L679.589 92.0761L680.466 91.5948ZM686.332 226V227H687.332V226H686.332ZM649.877 226H648.877V227H649.877V226ZM649.877 203.896H650.877V202.896H649.877V203.896ZM648.619 203.896V202.896H648.01L647.731 203.438L648.619 203.896ZM638.877 216.467L639.559 217.198L639.559 217.198L638.877 216.467ZM623.268 225.79L623.616 226.728L623.621 226.726L623.268 225.79ZM631.02 196.877L631.493 197.758L631.502 197.753L631.02 196.877ZM643.905 184.725L643.052 184.204L643.047 184.212L643.905 184.725ZM648.515 149.317H649.515V147.198L647.879 148.545L648.515 149.317ZM642.439 152.04L642.158 151.081L642.151 151.083L642.439 152.04ZM633.01 154.24L633.188 155.225L633.188 155.225L633.01 154.24ZM613.735 157.174L613.869 158.165L613.872 158.164L613.735 157.174ZM598.545 160.945L598.181 160.013L598.181 160.013L598.545 160.945ZM587.964 168.278L588.73 168.922L588.737 168.913L587.964 168.278ZM591.736 196.039L591.163 196.859L591.163 196.859L591.736 196.039ZM601.373 228.248C591.297 228.248 582.255 226.454 574.228 222.886L573.416 224.714C581.731 228.41 591.056 230.248 601.373 230.248V228.248ZM574.237 222.891C566.301 219.264 560.023 213.938 555.381 206.907L553.712 208.009C558.568 215.364 565.14 220.933 573.406 224.71L574.237 222.891ZM555.385 206.912C550.833 199.915 548.527 191.246 548.527 180.849H546.527C546.527 191.544 548.901 200.614 553.708 208.003L555.385 206.912ZM548.527 180.849C548.527 171.887 550.183 164.562 553.427 158.818L551.685 157.834C548.225 163.962 546.527 171.653 546.527 180.849H548.527ZM553.427 158.818C556.696 153.029 561.151 148.404 566.803 144.931L565.756 143.227C559.814 146.878 555.121 151.751 551.685 157.834L553.427 158.818ZM566.803 144.931C572.504 141.428 578.938 138.776 586.112 136.983L585.627 135.042C578.274 136.88 571.648 139.606 565.756 143.227L566.803 144.931ZM586.118 136.981C593.403 135.108 600.932 133.754 608.708 132.921L608.495 130.933C600.627 131.776 593.002 133.146 585.62 135.044L586.118 136.981ZM608.705 132.922C618.137 131.943 625.795 131.069 631.674 130.299L631.414 128.316C625.56 129.083 617.922 129.955 608.499 130.932L608.705 132.922ZM631.685 130.298C637.589 129.454 642.021 128.174 644.858 126.382L643.79 124.691C641.32 126.251 637.231 127.485 631.402 128.318L631.685 130.298ZM644.864 126.378C647.914 124.423 649.41 121.393 649.41 117.47H647.41C647.41 120.81 646.182 123.158 643.785 124.695L644.864 126.378ZM649.41 117.47V116.842H647.41V117.47H649.41ZM649.41 116.842C649.41 108.742 647.001 102.338 642.07 97.7749L640.712 99.2428C645.14 103.34 647.41 109.157 647.41 116.842H649.41ZM642.07 97.7749C637.146 93.218 630.128 91.0138 621.173 91.0138V93.0138C629.817 93.0138 636.278 95.1397 640.712 99.2428L642.07 97.7749ZM621.173 91.0138C611.747 91.0138 604.145 93.0687 598.472 97.2874L599.665 98.8923C604.887 95.0097 612.021 93.0138 621.173 93.0138V91.0138ZM598.467 97.2911C592.955 101.443 589.187 106.384 587.227 112.118L589.12 112.765C590.931 107.465 594.427 102.838 599.67 98.8886L598.467 97.2911ZM588.314 111.452L552.906 106.423L552.625 108.403L588.033 113.432L588.314 111.452ZM553.727 107.688C556.48 98.0531 561.011 90.033 567.308 83.5993L565.879 82.2004C559.325 88.8964 554.638 97.2187 551.804 107.139L553.727 107.688ZM567.312 83.5955C573.622 77.0792 581.345 72.2014 590.497 68.967L589.831 67.0813C580.407 70.4117 572.415 75.4511 565.875 82.2042L567.312 83.5955ZM590.504 68.9648C599.669 65.6568 609.819 63.9957 620.963 63.9957V61.9957C609.619 61.9957 599.236 63.6869 589.825 67.0835L590.504 68.9648ZM620.963 63.9957C628.636 63.9957 636.276 64.8943 643.885 66.6926L644.345 64.7463C636.589 62.913 628.794 61.9957 620.963 61.9957V63.9957ZM643.885 66.6926C651.457 68.4825 658.367 71.4401 664.621 75.5635L665.722 73.8938C659.265 69.6366 652.137 66.588 644.345 64.7463L643.885 66.6926ZM664.627 75.5678C670.832 79.5907 675.819 85.0832 679.586 92.0694L681.346 91.1202C677.431 83.8593 672.221 78.1077 665.715 73.8896L664.627 75.5678ZM679.589 92.0761C683.398 99.013 685.332 107.74 685.332 118.308H687.332C687.332 107.506 685.356 98.4238 681.343 91.1136L679.589 92.0761ZM685.332 118.308V226H687.332V118.308H685.332ZM686.332 225H649.877V227H686.332V225ZM650.877 226V203.896H648.877V226H650.877ZM649.877 202.896H648.619V204.896H649.877V202.896ZM647.731 203.438C645.485 207.792 642.312 211.893 638.195 215.736L639.559 217.198C643.822 213.219 647.144 208.939 649.508 204.354L647.731 203.438ZM638.195 215.736C634.186 219.473 629.101 222.518 622.914 224.855L623.621 226.726C630.005 224.314 635.327 221.144 639.559 217.198L638.195 215.736ZM622.92 224.853C616.841 227.107 609.665 228.248 601.373 228.248V230.248C609.843 230.248 617.264 229.083 623.616 226.728L622.92 224.853ZM611.221 202.382C618.965 202.382 625.734 200.853 631.493 197.758L630.547 195.996C625.131 198.907 618.701 200.382 611.221 200.382V202.382ZM631.502 197.753C637.23 194.603 641.662 190.432 644.764 185.238L643.047 184.212C640.143 189.075 635.984 193.006 630.538 196.001L631.502 197.753ZM644.759 185.247C647.928 180.06 649.515 174.397 649.515 168.278H647.515C647.515 174.032 646.028 179.334 643.052 184.204L644.759 185.247ZM649.515 168.278V149.317H647.515V168.278H649.515ZM647.879 148.545C646.854 149.389 644.99 150.252 642.158 151.081L642.72 153C645.614 152.153 647.801 151.2 649.15 150.089L647.879 148.545ZM642.151 151.083C639.401 151.908 636.296 152.633 632.833 153.256L633.188 155.225C636.709 154.591 639.889 153.849 642.726 152.998L642.151 151.083ZM632.833 153.256C629.353 153.883 625.908 154.439 622.498 154.927L622.781 156.906C626.215 156.416 629.684 155.855 633.188 155.225L632.833 153.256ZM622.498 154.927C619.077 155.415 616.11 155.834 613.597 156.183L613.872 158.164C616.388 157.815 619.358 157.395 622.781 156.906L622.498 154.927ZM613.6 156.183C607.879 156.96 602.737 158.234 598.181 160.013L598.909 161.876C603.292 160.164 608.277 158.924 613.869 158.165L613.6 156.183ZM598.181 160.013C593.581 161.81 589.902 164.346 587.192 167.643L588.737 168.913C591.194 165.924 594.57 163.571 598.909 161.876L598.181 160.013ZM587.199 167.634C584.432 170.925 583.088 175.15 583.088 180.221H585.088C585.088 175.514 586.328 171.777 588.73 168.922L587.199 167.634ZM583.088 180.221C583.088 187.484 585.761 193.085 591.163 196.859L592.308 195.219C587.514 191.87 585.088 186.924 585.088 180.221H583.088ZM591.163 196.859C596.469 200.566 603.179 202.382 611.221 202.382V200.382C603.478 200.382 597.198 198.636 592.308 195.219L591.163 196.859ZM724.465 226H723.465V227H724.465V226ZM724.465 65.0909V64.0909H723.465V65.0909H724.465ZM761.235 65.0909H762.235V64.0909H761.235V65.0909ZM761.235 91.9091H760.235V92.9091H761.235V91.9091ZM762.911 91.9091V92.9091H763.644L763.865 92.2102L762.911 91.9091ZM777.996 70.4336L778.573 71.2506L778.574 71.2495L777.996 70.4336ZM809.633 63.1005L809.552 64.0972L809.567 64.0984L809.581 64.0991L809.633 63.1005ZM816.233 63.8338H817.233V63.014L816.429 62.8532L816.233 63.8338ZM816.233 98.7184L815.905 99.6629L817.233 100.125V98.7184H816.233ZM808.586 97.2518L808.444 98.2417L808.455 98.2433L808.467 98.2446L808.586 97.2518ZM779.987 101.023L780.461 101.904L780.465 101.901L779.987 101.023ZM762.387 226V227H763.387V226H762.387ZM725.465 226V65.0909H723.465V226H725.465ZM724.465 66.0909H761.235V64.0909H724.465V66.0909ZM760.235 65.0909V91.9091H762.235V65.0909H760.235ZM761.235 92.9091H762.911V90.9091H761.235V92.9091ZM763.865 92.2102C766.74 83.1045 771.649 76.1382 778.573 71.2506L777.42 69.6166C770.096 74.7859 764.948 82.1365 761.957 91.608L763.865 92.2102ZM778.574 71.2495C785.591 66.2767 793.593 63.7862 802.614 63.7862V61.7862C793.199 61.7862 784.788 64.394 777.418 69.6177L778.574 71.2495ZM802.614 63.7862C804.677 63.7862 806.989 63.8894 809.552 64.0972L809.714 62.1038C807.109 61.8926 804.742 61.7862 802.614 61.7862V63.7862ZM809.581 64.0991C812.207 64.2374 814.355 64.478 816.037 64.8144L816.429 62.8532C814.619 62.4912 812.367 62.243 809.686 62.1019L809.581 64.0991ZM815.233 63.8338V98.7184H817.233V63.8338H815.233ZM816.562 97.7739C814.848 97.1779 812.209 96.6794 808.705 96.2589L808.467 98.2446C811.946 98.6622 814.405 99.1415 815.905 99.6629L816.562 97.7739ZM808.727 96.2618C805.262 95.7668 801.897 95.5185 798.634 95.5185V97.5185C801.795 97.5185 805.065 97.759 808.444 98.2417L808.727 96.2618ZM798.634 95.5185C791.57 95.5185 785.187 97.054 779.509 100.145L780.465 101.901C785.821 98.986 791.869 97.5185 798.634 97.5185V95.5185ZM779.512 100.143C773.909 103.16 769.48 107.371 766.244 112.765L767.959 113.794C771.008 108.713 775.169 104.753 780.461 101.904L779.512 100.143ZM766.244 112.765C762.997 118.177 761.387 124.4 761.387 131.403H763.387C763.387 124.718 764.92 118.859 767.959 113.794L766.244 112.765ZM761.387 131.403V226H763.387V131.403H761.387ZM762.387 225H724.465V227H762.387V225ZM860.572 219.086L860.027 219.924L860.027 219.924L860.572 219.086ZM836.897 190.801L837.802 190.377L837.802 190.377L836.897 190.801ZM837.001 100.499L836.1 100.066L836.099 100.069L837.001 100.499ZM860.991 72.5288L861.521 73.3768L861.525 73.3741L860.991 72.5288ZM917.875 67.8146L917.408 68.6987L917.416 68.7028L917.875 67.8146ZM932.332 79.2333L931.55 79.8565L931.554 79.8625L932.332 79.2333ZM940.608 91.6996L939.713 92.1468L939.99 92.6996H940.608V91.6996ZM942.179 91.6996V92.6996H943.179V91.6996H942.179ZM942.179 11.4545V10.4545H941.179V11.4545H942.179ZM980.206 11.4545H981.206V10.4545H980.206V11.4545ZM980.206 226V227H981.206V226H980.206ZM942.912 226H941.912V227H942.912V226ZM942.912 200.648H943.912V199.648H942.912V200.648ZM940.608 200.648V199.648H939.99L939.713 200.201L940.608 200.648ZM932.122 213.115L932.882 213.765L932.887 213.758L932.122 213.115ZM917.456 224.219L917.907 225.111L917.907 225.111L917.456 224.219ZM925.627 191.22L926.235 192.014L926.241 192.01L925.627 191.22ZM938.512 172.887L937.576 172.536L937.576 172.536L938.512 172.887ZM938.512 118.413L937.575 118.762L937.578 118.77L938.512 118.413ZM925.732 100.499L925.126 101.295L925.13 101.298L925.732 100.499ZM883.933 100.709L883.319 99.9194L883.319 99.9194L883.933 100.709ZM871.153 118.937L870.215 118.59L870.215 118.59L871.153 118.937ZM871.153 172.468L870.213 172.809L870.216 172.82L871.153 172.468ZM884.038 191.011L883.412 191.791L883.423 191.799L884.038 191.011ZM894.514 227.828C882.054 227.828 870.932 224.631 861.117 218.248L860.027 219.924C870.186 226.531 881.692 229.828 894.514 229.828V227.828ZM861.117 218.248C851.308 211.868 843.531 202.594 837.802 190.377L835.991 191.226C841.855 203.731 849.862 213.313 860.027 219.924L861.117 218.248ZM837.802 190.377C832.083 178.181 829.202 163.319 829.202 145.755H827.202C827.202 163.529 830.117 178.698 835.991 191.226L837.802 190.377ZM829.202 145.755C829.202 127.981 832.118 113.052 837.904 100.93L836.099 100.069C830.151 112.53 827.202 127.772 827.202 145.755H829.202ZM837.903 100.932C843.77 88.7142 851.649 79.547 861.521 73.3768L860.461 71.6808C850.22 78.0816 842.105 87.5614 836.1 100.066L837.903 100.932ZM861.525 73.3741C871.416 67.1239 882.438 63.9957 894.619 63.9957V61.9957C882.076 61.9957 870.68 65.223 860.457 71.6834L861.525 73.3741ZM894.619 63.9957C903.942 63.9957 911.519 65.5852 917.408 68.6987L918.342 66.9306C912.079 63.6188 904.152 61.9957 894.619 61.9957V63.9957ZM917.416 68.7028C923.391 71.7935 928.091 75.5163 931.55 79.8565L933.114 78.6101C929.449 74.0109 924.511 70.1213 918.334 66.9264L917.416 68.7028ZM931.554 79.8625C935.083 84.2216 937.798 88.3162 939.713 92.1468L941.502 91.2524C939.506 87.261 936.704 83.0447 933.109 78.6041L931.554 79.8625ZM940.608 92.6996H942.179V90.6996H940.608V92.6996ZM943.179 91.6996V11.4545H941.179V91.6996H943.179ZM942.179 12.4545H980.206V10.4545H942.179V12.4545ZM979.206 11.4545V226H981.206V11.4545H979.206ZM980.206 225H942.912V227H980.206V225ZM943.912 226V200.648H941.912V226H943.912ZM942.912 199.648H940.608V201.648H942.912V199.648ZM939.713 200.201C937.802 204.024 935.023 208.114 931.357 212.471L932.887 213.758C936.625 209.316 939.502 205.095 941.502 201.096L939.713 200.201ZM931.362 212.465C927.762 216.677 922.985 220.302 917.005 223.327L917.907 225.111C924.079 221.99 929.08 218.213 932.882 213.764L931.362 212.465ZM917.005 223.327C911.109 226.308 903.629 227.828 894.514 227.828V229.828C903.837 229.828 911.651 228.276 917.907 225.111L917.005 223.327ZM905.094 198.715C913.316 198.715 920.382 196.495 926.235 192.014L925.019 190.426C919.559 194.606 912.936 196.715 905.094 196.715V198.715ZM926.241 192.01C932.067 187.479 936.462 181.204 939.449 173.239L937.576 172.536C934.697 180.214 930.502 186.162 925.013 190.431L926.241 192.01ZM939.449 173.239C942.433 165.281 943.912 156.043 943.912 145.545H941.912C941.912 155.86 940.458 164.85 937.576 172.536L939.449 173.239ZM943.912 145.545C943.912 135.049 942.433 125.878 939.447 118.056L937.578 118.77C940.458 126.312 941.912 135.23 941.912 145.545H943.912ZM939.449 118.064C936.53 110.231 932.166 104.093 926.333 99.7005L925.13 101.298C930.612 105.426 934.768 111.23 937.575 118.762L939.449 118.064ZM926.338 99.7041C920.549 95.2902 913.448 93.109 905.094 93.109V95.109C913.084 95.109 919.74 97.188 925.126 101.294L926.338 99.7041ZM905.094 93.109C896.463 93.109 889.182 95.3597 883.319 99.9194L884.547 101.498C889.999 97.2582 896.825 95.109 905.094 95.109V93.109ZM883.319 99.9194C877.494 104.45 873.133 110.691 870.215 118.59L872.091 119.283C874.9 111.679 879.059 105.767 884.547 101.498L883.319 99.9194ZM870.215 118.59C867.303 126.474 865.858 135.464 865.858 145.545H867.858C867.858 135.653 869.276 126.904 872.091 119.283L870.215 118.59ZM865.858 145.545C865.858 155.696 867.303 164.789 870.213 172.809L872.093 172.127C869.276 164.364 867.858 155.508 867.858 145.545H865.858ZM870.216 172.82C873.203 180.784 877.595 187.122 883.412 191.791L884.664 190.231C879.167 185.82 874.969 179.797 872.089 172.117L870.216 172.82ZM883.423 191.799C889.35 196.425 896.594 198.715 905.094 198.715V196.715C896.973 196.715 890.179 194.535 884.653 190.222L883.423 191.799ZM1196.35 65.0909V64.0909H1195.35V65.0909H1196.35ZM1234.27 65.0909H1235.27V64.0909H1234.27V65.0909ZM1234.27 226V227H1235.27V226H1234.27ZM1197.5 226H1196.5V227H1197.5V226ZM1197.5 197.401H1198.5V196.401H1197.5V197.401ZM1195.83 197.401V196.401H1195.15L1194.9 197.027L1195.83 197.401ZM1177.91 219.505L1177.34 218.682L1177.34 218.684L1177.91 219.505ZM1119.46 221.076L1118.95 221.937L1118.96 221.942L1119.46 221.076ZM1100.6 200.439L1099.71 200.886L1099.71 200.889L1100.6 200.439ZM1093.79 65.0909V64.0909H1092.79V65.0909H1093.79ZM1131.71 65.0909H1132.71V64.0909H1131.71V65.0909ZM1140.09 185.982L1139.36 186.663L1139.36 186.663L1140.09 185.982ZM1178.33 190.906L1177.87 190.019L1177.87 190.019L1178.33 190.906ZM1191.22 178.754L1190.37 178.222L1190.37 178.225L1191.22 178.754ZM1197.35 158.326V65.0909H1195.35V158.326H1197.35ZM1196.35 66.0909H1234.27V64.0909H1196.35V66.0909ZM1233.27 65.0909V226H1235.27V65.0909H1233.27ZM1234.27 225H1197.5V227H1234.27V225ZM1198.5 226V197.401H1196.5V226H1198.5ZM1197.5 196.401H1195.83V198.401H1197.5V196.401ZM1194.9 197.027C1191.34 205.847 1185.5 213.061 1177.34 218.682L1178.48 220.328C1186.94 214.495 1193.05 206.973 1196.75 197.775L1194.9 197.027ZM1177.34 218.684C1169.3 224.272 1159.35 227.095 1147.43 227.095V229.095C1159.67 229.095 1170.04 226.191 1178.48 220.326L1177.34 218.684ZM1147.43 227.095C1137.03 227.095 1127.89 224.791 1119.96 220.21L1118.96 221.942C1127.23 226.72 1136.73 229.095 1147.43 229.095V227.095ZM1119.97 220.216C1112.11 215.572 1105.95 208.842 1101.49 199.989L1099.71 200.889C1104.33 210.055 1110.74 217.083 1118.95 221.937L1119.97 220.216ZM1101.49 199.992C1097.04 191.083 1094.79 180.28 1094.79 167.545H1092.79C1092.79 180.51 1095.08 191.636 1099.71 200.886L1101.49 199.992ZM1094.79 167.545V65.0909H1092.79V167.545H1094.79ZM1093.79 66.0909H1131.71V64.0909H1093.79V66.0909ZM1130.71 65.0909V161.678H1132.71V65.0909H1130.71ZM1130.71 161.678C1130.71 172.063 1133.56 180.43 1139.36 186.663L1140.83 185.301C1135.45 179.522 1132.71 171.686 1132.71 161.678H1130.71ZM1139.36 186.663C1145.16 192.896 1152.77 195.991 1162.09 195.991V193.991C1153.26 193.991 1146.2 191.081 1140.83 185.301L1139.36 186.663ZM1162.09 195.991C1167.85 195.991 1173.42 194.587 1178.79 191.793L1177.87 190.019C1172.77 192.673 1167.51 193.991 1162.09 193.991V195.991ZM1178.79 191.793C1184.2 188.981 1188.63 184.801 1192.06 179.283L1190.37 178.225C1187.1 183.462 1182.94 187.384 1177.87 190.019L1178.79 191.793ZM1192.06 179.286C1195.61 173.641 1197.35 166.635 1197.35 158.326H1195.35C1195.35 166.359 1193.67 172.972 1190.37 178.222L1192.06 179.286ZM1273.27 226H1272.27V227H1273.27V226ZM1273.27 65.0909V64.0909H1272.27V65.0909H1273.27ZM1311.19 65.0909H1312.19V64.0909H1311.19V65.0909ZM1311.19 226V227H1312.19V226H1311.19ZM1276.83 36.2823L1276.15 37.0126L1276.15 37.0185L1276.83 36.2823ZM1276.83 7.15943L1277.51 7.89563L1277.51 7.8897L1276.83 7.15943ZM1307.84 7.15943L1307.15 7.88413L1307.16 7.88992L1307.16 7.8956L1307.84 7.15943ZM1307.84 36.2823L1308.52 37.013L1308.52 37.0126L1307.84 36.2823ZM1274.27 226V65.0909H1272.27V226H1274.27ZM1273.27 66.0909H1311.19V64.0909H1273.27V66.0909ZM1310.19 65.0909V226H1312.19V65.0909H1310.19ZM1311.19 225H1273.27V227H1311.19V225ZM1292.33 41.2536C1286.57 41.2536 1281.65 39.3534 1277.51 35.5461L1276.15 37.0185C1280.67 41.1729 1286.08 43.2536 1292.33 43.2536V41.2536ZM1277.51 35.552C1273.37 31.6802 1271.34 27.0864 1271.34 21.7209H1269.34C1269.34 27.6693 1271.63 32.7831 1276.15 37.0126L1277.51 35.552ZM1271.34 21.7209C1271.34 16.2824 1273.38 11.6929 1277.51 7.8956L1276.15 6.42326C1271.62 10.5876 1269.34 15.7058 1269.34 21.7209H1271.34ZM1277.51 7.8897C1281.66 4.01484 1286.58 2.08345 1292.33 2.08345V0.0834453C1286.08 0.0834453 1280.66 2.20271 1276.15 6.42916L1277.51 7.8897ZM1292.33 2.08345C1298.16 2.08345 1303.08 4.01669 1307.15 7.88413L1308.53 6.43473C1304.07 2.20086 1298.66 0.0834453 1292.33 0.0834453V2.08345ZM1307.16 7.8956C1311.29 11.6929 1313.33 16.2824 1313.33 21.7209H1315.33C1315.33 15.7058 1313.05 10.5876 1308.52 6.42326L1307.16 7.8956ZM1313.33 21.7209C1313.33 27.0864 1311.29 31.6802 1307.16 35.552L1308.52 37.0126C1313.04 32.7831 1315.33 27.6693 1315.33 21.7209H1313.33ZM1307.16 35.5517C1303.09 39.3515 1298.17 41.2536 1292.33 41.2536V43.2536C1298.65 43.2536 1304.07 41.1747 1308.52 37.013L1307.16 35.5517Z" fill="url(#paint1_linear_454_5)" mask="url(#path-1-outside-1_454_5)"/>
<defs>
<linearGradient id="paint0_linear_454_5" x1="663.5" y1="-60" x2="663.5" y2="223" gradientUnits="userSpaceOnUse">
<stop stop-color="#26262E"/>
<stop offset="1" stop-color="#0A0A14" stop-opacity="0"/>
</linearGradient>
<linearGradient id="paint1_linear_454_5" x1="663.5" y1="-60" x2="664" y2="251" gradientUnits="userSpaceOnUse">
<stop stop-color="#988EFF" stop-opacity="0.59"/>
<stop offset="1" stop-opacity="0"/>
</linearGradient>
</defs>
</svg>
