<svg width="21" height="18" viewBox="0 0 21 18" fill="none" xmlns="http://www.w3.org/2000/svg">
<path d="M20 1.50195L17.5 16.502L20 1.50195ZM20 1.50195L8 10.002L20 1.50195Z" fill="#D2D5D6" fill-opacity="0.65"/>
<path d="M17.5 16.502L20 1.50195L8 10.002" stroke="#D2D5D6" stroke-opacity="0.65" stroke-width="2" stroke-linecap="round" stroke-linejoin="round"/>
<path d="M20 1.50195L1 9.00195L20 1.50195Z" fill="#D2D5D6" fill-opacity="0.65"/>
<path d="M20 1.50195L1 9.00195" stroke="#D2D5D6" stroke-opacity="0.65" stroke-width="2" stroke-linecap="round" stroke-linejoin="round"/>
<path d="M17.5 16.502L8 10.002L17.5 16.502Z" fill="#D2D5D6" fill-opacity="0.65"/>
<path d="M17.5 16.502L8 10.002" stroke="#D2D5D6" stroke-opacity="0.65" stroke-width="2" stroke-linecap="round" stroke-linejoin="round"/>
<path d="M1 9.00195L8 10.002L1 9.00195Z" fill="#D2D5D6" fill-opacity="0.65"/>
<path d="M1 9.00195L8 10.002" stroke="#D2D5D6" stroke-opacity="0.65" stroke-width="2" stroke-linecap="round" stroke-linejoin="round"/>
<path d="M11 12.502L8 15.502L11 12.502ZM8 10.002V15.502V10.002Z" fill="#D2D5D6" fill-opacity="0.65"/>
<path d="M11 12.502L8 15.502V10.002" stroke="#D2D5D6" stroke-opacity="0.65" stroke-width="2" stroke-linecap="round" stroke-linejoin="round"/>
</svg>
